<svg width="1201" height="723" viewBox="0 0 1201 723" fill="none" xmlns="http://www.w3.org/2000/svg">
  <path d="M22.6233 56.5712L22.9499 46.8928L32.0017 46.5275C32.0851 48.8891 30.3621 50.8759 28.1533 50.965L26.8155 51.019L26.7672 52.4491C26.6875 54.8109 24.8322 56.6564 22.6233 56.5712Z" fill="white"/>
  <path d="M43.3101 50.3534C41.1013 50.4425 39.2431 48.6003 39.1598 46.2387L57.2631 45.5081C57.3465 47.8697 55.6235 49.8565 53.4147 49.9456L43.3101 50.3534Z" fill="white"/>
  <path d="M68.5716 49.3339C66.3628 49.4231 64.5046 47.5809 64.4212 45.2192L82.5245 44.4887C82.6079 46.8503 80.8849 48.837 78.6761 48.9262L68.5716 49.3339Z" fill="white"/>
  <path d="M93.833 48.3145C91.6242 48.4037 89.766 46.5615 89.6827 44.1998L107.786 43.4693C107.869 45.8309 106.146 47.8176 103.938 47.9068L93.833 48.3145Z" fill="white"/>
  <path d="M119.094 47.2951C116.886 47.3843 115.027 45.542 114.944 43.1804L133.047 42.4499C133.131 44.8115 131.408 46.7982 129.199 46.8874L119.094 47.2951Z" fill="white"/>
  <path d="M144.356 46.2757C142.147 46.3648 140.289 44.5226 140.205 42.161L158.309 41.4305C158.392 43.7921 156.669 45.7788 154.46 45.868L144.356 46.2757Z" fill="white"/>
  <path d="M169.617 45.2563C167.408 45.3454 165.55 43.5032 165.467 41.1416L183.57 40.4111C183.653 42.7727 181.93 44.7594 179.722 44.8485L169.617 45.2563Z" fill="white"/>
  <path d="M194.879 44.2369C192.67 44.326 190.812 42.4838 190.728 40.1222L208.832 39.3917C208.915 41.7533 207.192 43.74 204.983 43.8291L194.879 44.2369Z" fill="white"/>
  <path d="M220.14 43.2175C217.931 43.3066 216.073 41.4644 215.99 39.1028L234.093 38.3723C234.176 40.7339 232.453 42.7206 230.244 42.8097L220.14 43.2175Z" fill="white"/>
  <path d="M245.401 42.1981C243.193 42.2872 241.334 40.445 241.251 38.0834L259.354 37.3528C259.438 39.7145 257.715 41.7012 255.506 41.7903L245.401 42.1981Z" fill="white"/>
  <path d="M270.663 41.1787C268.454 41.2678 266.596 39.4256 266.512 37.064L284.616 36.3334C284.699 38.6951 282.976 40.6818 280.767 40.7709L270.663 41.1787Z" fill="white"/>
  <path d="M295.924 40.1593C293.715 40.2484 291.857 38.4062 291.774 36.0446L309.877 35.314C309.961 37.6756 308.238 39.6624 306.029 39.7515L295.924 40.1593Z" fill="white"/>
  <path d="M321.186 39.1399C318.977 39.229 317.119 37.3868 317.035 35.0252L335.139 34.2946C335.222 36.6562 333.499 38.643 331.29 38.7321L321.186 39.1399Z" fill="white"/>
  <path d="M346.447 38.1204C344.238 38.2096 342.38 36.3674 342.297 34.0058L360.4 33.2752C360.483 35.6368 358.76 37.6236 356.552 37.7127L346.447 38.1204Z" fill="white"/>
  <path d="M371.708 37.101C369.5 37.1902 367.642 35.348 367.558 32.9864L385.661 32.2558C385.745 34.6174 384.022 36.6041 381.813 36.6933L371.708 37.101Z" fill="white"/>
  <path d="M396.97 36.0816C394.761 36.1708 392.903 34.3286 392.82 31.9669L410.923 31.2364C411.006 33.598 409.283 35.5847 407.074 35.6739L396.97 36.0816Z" fill="white"/>
  <path d="M422.231 35.0622C420.023 35.1514 418.164 33.3092 418.081 30.9475L436.184 30.217C436.268 32.5786 434.545 34.5653 432.336 34.6545L422.231 35.0622Z" fill="white"/>
  <path d="M447.493 34.0428C445.284 34.132 443.426 32.2897 443.342 29.9281L461.446 29.1976C461.529 31.5592 459.806 33.5459 457.597 33.6351L447.493 34.0428Z" fill="white"/>
  <path d="M472.754 33.0234C470.545 33.1125 468.687 31.2703 468.604 28.9087L486.707 28.1782C486.791 30.5398 485.067 32.5265 482.859 32.6156L472.754 33.0234Z" fill="white"/>
  <path d="M498.016 32.004C495.807 32.0931 493.949 30.2509 493.865 27.8893L511.969 27.1588C512.052 29.5204 510.329 31.5071 508.12 31.5962L498.016 32.004Z" fill="white"/>
  <path d="M523.277 30.9846C521.068 31.0737 519.21 29.2315 519.127 26.8699L537.23 26.1393C537.313 28.501 535.59 30.4877 533.382 30.5768L523.277 30.9846Z" fill="white"/>
  <path d="M548.538 29.9652C546.33 30.0543 544.471 28.2121 544.388 25.8505L562.491 25.1199C562.575 27.4816 560.852 29.4683 558.643 29.5574L548.538 29.9652Z" fill="white"/>
  <path d="M573.8 28.9458C571.591 29.0349 569.733 27.1927 569.649 24.8311L587.753 24.1005C587.836 26.4621 586.113 28.4489 583.904 28.538L573.8 28.9458Z" fill="white"/>
  <path d="M599.061 27.9264C596.852 28.0155 594.994 26.1733 594.911 23.8117L613.014 23.0811C613.098 25.4427 611.375 27.4295 609.166 27.5186L599.061 27.9264Z" fill="white"/>
  <path d="M624.323 26.907C622.114 26.9961 620.256 25.1539 620.172 22.7923L638.276 22.0617C638.359 24.4233 636.636 26.4101 634.427 26.4992L624.323 26.907Z" fill="white"/>
  <path d="M649.584 25.8875C647.375 25.9767 645.517 24.1345 645.434 21.7729L663.537 21.0423C663.62 23.4039 661.897 25.3906 659.689 25.4798L649.584 25.8875Z" fill="white"/>
  <path d="M674.846 24.8681C672.637 24.9573 670.779 23.1151 670.695 20.7534L688.799 20.0229C688.882 22.3845 687.159 24.3712 684.95 24.4604L674.846 24.8681Z" fill="white"/>
  <path d="M700.107 23.8487C697.898 23.9379 696.04 22.0957 695.957 19.734L714.06 19.0035C714.143 21.3651 712.42 23.3518 710.211 23.441L700.107 23.8487Z" fill="white"/>
  <path d="M725.368 22.8293C723.16 22.9185 721.301 21.0762 721.218 18.7146L739.321 17.9841C739.405 20.3457 737.682 22.3324 735.473 22.4216L725.368 22.8293Z" fill="white"/>
  <path d="M750.63 21.8099C748.421 21.899 746.563 20.0568 746.479 17.6952L764.583 16.9647C764.666 19.3263 762.943 21.313 760.734 21.4021L750.63 21.8099Z" fill="white"/>
  <path d="M775.891 20.7905C773.682 20.8796 771.824 19.0374 771.741 16.6758L789.844 15.9453C789.928 18.3069 788.205 20.2936 785.996 20.3827L775.891 20.7905Z" fill="white"/>
  <path d="M801.153 19.7711C798.944 19.8602 797.086 18.018 797.002 15.6564L815.106 14.9259C815.189 17.2875 813.466 19.2742 811.257 19.3633L801.153 19.7711Z" fill="white"/>
  <path d="M826.414 18.7517C824.205 18.8408 822.347 16.9986 822.264 14.637L840.367 13.9064C840.45 16.2681 838.727 18.2548 836.519 18.3439L826.414 18.7517Z" fill="white"/>
  <path d="M851.675 17.7323C849.467 17.8214 847.608 15.9792 847.525 13.6176L865.628 12.887C865.712 15.2487 863.989 17.2354 861.78 17.3245L851.675 17.7323Z" fill="white"/>
  <path d="M876.937 16.7129C874.728 16.802 872.87 14.9598 872.786 12.5982L890.89 11.8676C890.973 14.2292 889.25 16.216 887.041 16.3051L876.937 16.7129Z" fill="white"/>
  <path d="M902.198 15.6935C899.989 15.7826 898.131 13.9404 898.048 11.5788L916.151 10.8482C916.235 13.2098 914.512 15.1966 912.303 15.2857L902.198 15.6935Z" fill="white"/>
  <path d="M927.46 14.6741C925.251 14.7632 923.393 12.921 923.309 10.5594L941.413 9.82881C941.496 12.1904 939.773 14.1772 937.564 14.2663L927.46 14.6741Z" fill="white"/>
  <path d="M952.721 13.6546C950.512 13.7438 948.654 11.9016 948.571 9.53995L966.674 8.8094C966.757 11.171 965.034 13.1577 962.826 13.2469L952.721 13.6546Z" fill="white"/>
  <path d="M977.982 12.6352C975.774 12.7244 973.915 10.8822 973.832 8.52054L991.935 7.78999C992.019 10.1516 990.296 12.1383 988.087 12.2275L977.982 12.6352Z" fill="white"/>
  <path d="M1003.24 11.6158C1001.04 11.705 999.177 9.86275 999.094 7.50114L1017.2 6.77059C1017.28 9.1322 1015.56 11.1189 1013.35 11.2081L1003.24 11.6158Z" fill="white"/>
  <path d="M1028.51 10.5964C1026.3 10.6856 1024.44 8.84334 1024.35 6.48173L1042.46 5.75118C1042.54 8.11279 1040.82 10.0995 1038.61 10.1887L1028.51 10.5964Z" fill="white"/>
  <path d="M1053.77 9.57701C1051.56 9.66615 1049.7 7.82393 1049.62 5.46232L1067.72 4.73177C1067.8 7.09338 1066.08 9.08011 1063.87 9.16925L1053.77 9.57701Z" fill="white"/>
  <path d="M1079.03 8.5576C1076.82 8.64674 1074.96 6.80453 1074.88 4.44291L1092.98 3.71236C1093.06 6.07398 1091.34 8.0607 1089.13 8.14984L1079.03 8.5576Z" fill="white"/>
  <path d="M1104.29 7.53819C1102.08 7.62733 1100.22 5.78512 1100.14 3.4235L1118.24 2.69295C1118.33 5.05457 1116.6 7.04129 1114.39 7.13043L1104.29 7.53819Z" fill="white"/>
  <path d="M1129.55 6.51878C1127.34 6.60792 1125.48 4.76571 1125.4 2.40409L1143.5 1.67354C1143.59 4.03516 1141.86 6.02189 1139.66 6.11102L1129.55 6.51878Z" fill="white"/>
  <path d="M1154.81 5.49937C1152.6 5.58851 1150.75 3.7463 1150.66 1.38468L1168.77 0.654134C1168.85 3.01575 1167.13 5.00248 1164.92 5.09161L1154.81 5.49937Z" fill="white"/>
  <path d="M1180.07 4.47997C1177.86 4.5691 1176.01 2.72689 1175.92 0.365275L1184.98 0L1185.18 9.62706C1182.97 9.68019 1181.14 7.80792 1181.09 5.44522L1181.07 4.43996L1180.07 4.47997Z" fill="white"/>
  <path d="M1181.42 21.493C1181.37 19.1303 1183.13 17.1719 1185.34 17.1187L1185.74 36.3733C1183.53 36.4265 1181.7 34.5542 1181.65 32.1915L1181.42 21.493Z" fill="white"/>
  <path d="M1181.99 48.2393C1181.94 45.8766 1183.69 43.9181 1185.9 43.865L1186.3 63.1196C1184.09 63.1727 1182.26 61.3005 1182.21 58.9378L1181.99 48.2393Z" fill="white"/>
  <path d="M1182.55 74.9856C1182.5 72.6229 1184.25 70.6644 1186.46 70.6113L1186.87 89.8659C1184.66 89.919 1182.82 88.0468 1182.77 85.6841L1182.55 74.9856Z" fill="white"/>
  <path d="M1183.11 101.732C1183.06 99.3691 1184.81 97.4107 1187.02 97.3575L1187.43 116.612C1185.22 116.665 1183.39 114.793 1183.34 112.43L1183.11 101.732Z" fill="white"/>
  <path d="M1183.67 128.478C1183.62 126.115 1185.38 124.157 1187.59 124.104L1187.99 143.358C1185.78 143.412 1183.95 141.539 1183.9 139.177L1183.67 128.478Z" fill="white"/>
  <path d="M1184.24 155.224C1184.19 152.862 1185.94 150.903 1188.15 150.85L1188.55 170.105C1186.34 170.158 1184.51 168.286 1184.46 165.923L1184.24 155.224Z" fill="white"/>
  <path d="M1184.8 181.971C1184.75 179.608 1186.5 177.65 1188.71 177.596L1189.12 196.851C1186.91 196.904 1185.07 195.032 1185.02 192.669L1184.8 181.971Z" fill="white"/>
  <path d="M1185.36 208.717C1185.31 206.354 1187.06 204.396 1189.27 204.343L1189.68 223.597C1187.47 223.65 1185.64 221.778 1185.59 219.415L1185.36 208.717Z" fill="white"/>
  <path d="M1185.92 235.463C1185.88 233.101 1187.63 231.142 1189.84 231.089L1190.24 250.344C1188.03 250.397 1186.2 248.524 1186.15 246.162L1185.92 235.463Z" fill="white"/>
  <path d="M1186.49 262.21C1186.44 259.847 1188.19 257.888 1190.4 257.835L1190.8 277.09C1188.59 277.143 1186.76 275.271 1186.71 272.908L1186.49 262.21Z" fill="white"/>
  <path d="M1187.05 288.956C1187 286.593 1188.75 284.635 1190.96 284.582L1191.37 303.836C1189.16 303.889 1187.32 302.017 1187.27 299.654L1187.05 288.956Z" fill="white"/>
  <path d="M1187.61 315.702C1187.56 313.339 1189.31 311.381 1191.52 311.328L1191.93 330.582C1189.72 330.636 1187.89 328.763 1187.84 326.401L1187.61 315.702Z" fill="white"/>
  <path d="M1188.18 342.448C1188.13 340.086 1189.88 338.127 1192.09 338.074L1192.49 357.329C1190.28 357.382 1188.45 355.51 1188.4 353.147L1188.18 342.448Z" fill="white"/>
  <path d="M1188.74 369.195C1188.69 366.832 1190.44 364.874 1192.65 364.82L1193.05 384.075C1190.84 384.128 1189.01 382.256 1188.96 379.893L1188.74 369.195Z" fill="white"/>
  <path d="M1189.3 395.941C1189.25 393.578 1191 391.62 1193.21 391.567L1193.62 410.821C1191.41 410.874 1189.57 409.002 1189.53 406.639L1189.3 395.941Z" fill="white"/>
  <path d="M1189.86 422.687C1189.81 420.324 1191.56 418.366 1193.77 418.313L1194.18 437.568C1191.97 437.621 1190.14 435.748 1190.09 433.386L1189.86 422.687Z" fill="white"/>
  <path d="M1190.43 449.434C1190.38 447.071 1192.13 445.112 1194.34 445.059L1194.74 464.314C1192.53 464.367 1190.7 462.495 1190.65 460.132L1190.43 449.434Z" fill="white"/>
  <path d="M1190.99 476.18C1190.94 473.817 1192.69 471.859 1194.9 471.805L1195.3 491.06C1193.09 491.113 1191.26 489.241 1191.21 486.878L1190.99 476.18Z" fill="white"/>
  <path d="M1191.55 502.926C1191.5 500.563 1193.25 498.605 1195.46 498.552L1195.87 517.806C1193.66 517.859 1191.83 515.987 1191.78 513.624L1191.55 502.926Z" fill="white"/>
  <path d="M1192.11 529.672C1192.06 527.31 1193.81 525.351 1196.02 525.298L1196.43 544.553C1194.22 544.606 1192.39 542.733 1192.34 540.371L1192.11 529.672Z" fill="white"/>
  <path d="M1192.68 556.418C1192.63 554.056 1194.38 552.097 1196.59 552.044L1196.99 571.299C1194.78 571.352 1192.95 569.48 1192.9 567.117L1192.68 556.418Z" fill="white"/>
  <path d="M1193.24 583.165C1193.19 580.802 1194.94 578.844 1197.15 578.79L1197.55 598.045C1195.34 598.098 1193.51 596.226 1193.46 593.863L1193.24 583.165Z" fill="white"/>
  <path d="M1193.8 609.911C1193.75 607.548 1195.5 605.59 1197.71 605.537L1198.12 624.791C1195.91 624.844 1194.08 622.972 1194.03 620.609L1193.8 609.911Z" fill="white"/>
  <path d="M1194.36 636.657C1194.31 634.295 1196.06 632.336 1198.27 632.283L1198.68 651.538C1196.47 651.591 1194.64 649.718 1194.59 647.356L1194.36 636.657Z" fill="white"/>
  <path d="M1194.93 663.404C1194.88 661.041 1196.63 659.082 1198.84 659.029L1199.24 678.284C1197.03 678.337 1195.2 676.465 1195.15 674.102L1194.93 663.404Z" fill="white"/>
  <path d="M1195.49 690.15C1195.44 687.787 1197.19 685.829 1199.4 685.776L1199.8 705.03C1197.6 705.083 1195.76 703.211 1195.71 700.848L1195.49 690.15Z" fill="white"/>
  <path d="M1196.05 716.896C1196 714.533 1197.75 712.575 1199.96 712.522L1200.17 722.149L1191.16 722.149C1191.16 719.786 1192.95 717.87 1195.16 717.87H1196.07L1196.05 716.896Z" fill="white"/>
  <path d="M1180.16 717.87C1182.37 717.87 1184.17 719.786 1184.17 722.149H1166.16C1166.16 719.786 1167.95 717.87 1170.16 717.87H1180.16Z" fill="white"/>
  <path d="M1155.16 717.87C1157.37 717.87 1159.17 719.786 1159.17 722.149L1141.16 722.149C1141.16 719.786 1142.95 717.87 1145.16 717.87H1155.16Z" fill="white"/>
  <path d="M1130.16 717.87C1132.37 717.87 1134.17 719.786 1134.17 722.149H1116.16C1116.16 719.786 1117.95 717.87 1120.16 717.87H1130.16Z" fill="white"/>
  <path d="M1105.16 717.87C1107.37 717.87 1109.17 719.786 1109.17 722.149L1091.16 722.149C1091.16 719.786 1092.95 717.87 1095.16 717.87H1105.16Z" fill="white"/>
  <path d="M1080.16 717.87C1082.37 717.87 1084.17 719.786 1084.17 722.149H1066.16C1066.16 719.786 1067.95 717.87 1070.16 717.87H1080.16Z" fill="white"/>
  <path d="M1055.16 717.87C1057.37 717.87 1059.17 719.786 1059.17 722.149L1041.16 722.149C1041.16 719.786 1042.95 717.87 1045.16 717.87H1055.16Z" fill="white"/>
  <path d="M1030.16 717.87C1032.37 717.87 1034.17 719.786 1034.17 722.149H1016.16C1016.16 719.786 1017.95 717.87 1020.16 717.87H1030.16Z" fill="white"/>
  <path d="M1005.16 717.87C1007.37 717.87 1009.17 719.786 1009.17 722.149L991.162 722.149C991.162 719.786 992.954 717.87 995.164 717.87H1005.16Z" fill="white"/>
  <path d="M980.164 717.87C982.375 717.87 984.166 719.786 984.166 722.149H966.162C966.162 719.786 967.954 717.87 970.164 717.87H980.164Z" fill="white"/>
  <path d="M955.164 717.87C957.375 717.87 959.166 719.786 959.166 722.149H941.162C941.162 719.786 942.954 717.87 945.164 717.87H955.164Z" fill="white"/>
  <path d="M930.164 717.87C932.375 717.87 934.167 719.786 934.167 722.149H916.162C916.162 719.786 917.954 717.87 920.164 717.87H930.164Z" fill="white"/>
  <path d="M905.164 717.87C907.375 717.87 909.167 719.786 909.167 722.149H891.162C891.162 719.786 892.954 717.87 895.164 717.87H905.164Z" fill="white"/>
  <path d="M880.164 717.87C882.375 717.87 884.167 719.786 884.167 722.15H866.162C866.162 719.786 867.954 717.87 870.164 717.87H880.164Z" fill="white"/>
  <path d="M855.164 717.87C857.375 717.87 859.167 719.786 859.167 722.15H841.162C841.162 719.786 842.954 717.87 845.164 717.87H855.164Z" fill="white"/>
  <path d="M830.164 717.87C832.375 717.87 834.167 719.786 834.167 722.15H816.162C816.162 719.786 817.954 717.87 820.164 717.87H830.164Z" fill="white"/>
  <path d="M805.164 717.87C807.375 717.87 809.167 719.786 809.167 722.15H791.162C791.162 719.786 792.954 717.87 795.165 717.87H805.164Z" fill="white"/>
  <path d="M780.165 717.871C782.375 717.871 784.167 719.786 784.167 722.15H766.162C766.162 719.786 767.954 717.871 770.165 717.871H780.165Z" fill="white"/>
  <path d="M755.165 717.871C757.375 717.871 759.167 719.786 759.167 722.15H741.162C741.162 719.786 742.954 717.871 745.165 717.871H755.165Z" fill="white"/>
  <path d="M730.165 717.871C732.375 717.871 734.167 719.786 734.167 722.15H716.162C716.162 719.786 717.954 717.871 720.165 717.871H730.165Z" fill="white"/>
  <path d="M705.165 717.871C707.375 717.871 709.167 719.786 709.167 722.15H691.162C691.162 719.786 692.954 717.871 695.165 717.871H705.165Z" fill="white"/>
  <path d="M680.165 717.871C682.375 717.871 684.167 719.786 684.167 722.15H666.163C666.163 719.786 667.954 717.871 670.165 717.871H680.165Z" fill="white"/>
  <path d="M655.165 717.871C657.375 717.871 659.167 719.786 659.167 722.15H641.163C641.163 719.786 642.955 717.871 645.165 717.871H655.165Z" fill="white"/>
  <path d="M630.165 717.871C632.375 717.871 634.167 719.786 634.167 722.15L616.163 722.15C616.163 719.786 617.954 717.871 620.165 717.871H630.165Z" fill="white"/>
  <path d="M605.165 717.871C607.375 717.871 609.167 719.786 609.167 722.15H591.163C591.163 719.787 592.955 717.871 595.165 717.871H605.165Z" fill="white"/>
  <path d="M580.165 717.871C582.375 717.871 584.167 719.787 584.167 722.15L566.163 722.15C566.163 719.787 567.955 717.871 570.165 717.871H580.165Z" fill="white"/>
  <path d="M555.165 717.871C557.375 717.871 559.167 719.787 559.167 722.15H541.163C541.163 719.787 542.955 717.871 545.165 717.871H555.165Z" fill="white"/>
  <path d="M530.165 717.871C532.375 717.871 534.167 719.787 534.167 722.15L516.163 722.15C516.163 719.787 517.955 717.871 520.165 717.871H530.165Z" fill="white"/>
  <path d="M505.165 717.871C507.375 717.871 509.167 719.787 509.167 722.15H491.163C491.163 719.787 492.955 717.871 495.165 717.871H505.165Z" fill="white"/>
  <path d="M480.165 717.871C482.375 717.871 484.167 719.787 484.167 722.15L466.163 722.15C466.163 719.787 467.955 717.871 470.165 717.871L480.165 717.871Z" fill="white"/>
  <path d="M455.165 717.871C457.375 717.871 459.167 719.787 459.167 722.15H441.163C441.163 719.787 442.955 717.871 445.165 717.871H455.165Z" fill="white"/>
  <path d="M430.165 717.871C432.375 717.871 434.167 719.787 434.167 722.15L416.163 722.15C416.163 719.787 417.955 717.871 420.165 717.871L430.165 717.871Z" fill="white"/>
  <path d="M405.165 717.871C407.375 717.871 409.167 719.787 409.167 722.15H391.163C391.163 719.787 392.955 717.871 395.165 717.871H405.165Z" fill="white"/>
  <path d="M380.165 717.871C382.375 717.871 384.167 719.787 384.167 722.15L366.163 722.15C366.163 719.787 367.955 717.871 370.165 717.871L380.165 717.871Z" fill="white"/>
  <path d="M355.165 717.871C357.375 717.871 359.167 719.787 359.167 722.15H341.163C341.163 719.787 342.955 717.871 345.165 717.871H355.165Z" fill="white"/>
  <path d="M330.165 717.871C332.375 717.871 334.167 719.787 334.167 722.15L316.163 722.15C316.163 719.787 317.955 717.871 320.165 717.871L330.165 717.871Z" fill="white"/>
  <path d="M305.165 717.871C307.375 717.871 309.167 719.787 309.167 722.15H291.163C291.163 719.787 292.955 717.871 295.165 717.871H305.165Z" fill="white"/>
  <path d="M280.165 717.871C282.375 717.871 284.167 719.787 284.167 722.15L266.163 722.15C266.163 719.787 267.955 717.871 270.165 717.871L280.165 717.871Z" fill="white"/>
  <path d="M255.165 717.871C257.375 717.871 259.167 719.787 259.167 722.15H241.163C241.163 719.787 242.955 717.871 245.165 717.871H255.165Z" fill="white"/>
  <path d="M230.165 717.871C232.375 717.871 234.167 719.787 234.167 722.15L216.163 722.15C216.163 719.787 217.955 717.871 220.165 717.871L230.165 717.871Z" fill="white"/>
  <path d="M205.165 717.871C207.375 717.871 209.167 719.787 209.167 722.15H191.163C191.163 719.787 192.955 717.871 195.165 717.871H205.165Z" fill="white"/>
  <path d="M180.165 717.871C182.375 717.871 184.167 719.787 184.167 722.15L166.163 722.15C166.163 719.787 167.955 717.871 170.165 717.871L180.165 717.871Z" fill="white"/>
  <path d="M155.165 717.871C157.375 717.871 159.167 719.787 159.167 722.15H141.163C141.163 719.787 142.955 717.871 145.165 717.871H155.165Z" fill="white"/>
  <path d="M130.165 717.871C132.375 717.871 134.167 719.787 134.167 722.15L116.163 722.151C116.163 719.787 117.955 717.871 120.165 717.871L130.165 717.871Z" fill="white"/>
  <path d="M105.165 717.871C107.375 717.871 109.167 719.787 109.167 722.151H91.1628C91.1628 719.787 92.9547 717.871 95.165 717.871H105.165Z" fill="white"/>
  <path d="M80.165 717.871C82.3754 717.871 84.1673 719.787 84.1673 722.151L66.1628 722.151C66.1628 719.787 67.9547 717.871 70.165 717.871L80.165 717.871Z" fill="white"/>
  <path d="M55.165 717.871C57.3754 717.871 59.1673 719.787 59.1673 722.151H41.1628C41.1628 719.787 42.9547 717.871 45.165 717.871H55.165Z" fill="white"/>
  <path d="M30.165 717.871C32.3754 717.871 34.1673 719.787 34.1673 722.151L16.1628 722.151C16.1628 719.787 17.9547 717.871 20.165 717.871H30.165Z" fill="white"/>
  <path d="M5.16503 717.872C7.37541 717.872 9.16728 719.787 9.16728 722.151H0.165039L0.491609 712.472C2.70055 712.557 4.42664 714.541 4.34695 716.903L4.31427 717.872H5.16503Z" fill="white"/>
  <path d="M4.89379 700.697C4.8141 703.058 2.9588 704.904 0.749858 704.819L1.403 685.462C3.61194 685.547 5.33804 687.531 5.25835 689.893L4.89379 700.697Z" fill="white"/>
  <path d="M5.80518 673.686C5.72549 676.048 3.87019 677.894 1.66125 677.808L2.3144 658.452C4.52334 658.537 6.24943 660.52 6.16974 662.882L5.80518 673.686Z" fill="white"/>
  <path d="M6.71658 646.676C6.63689 649.038 4.78158 650.883 2.57265 650.798L3.22579 631.441C5.43473 631.526 7.16083 633.51 7.08114 635.872L6.71658 646.676Z" fill="white"/>
  <path d="M7.62797 619.666C7.54828 622.027 5.69298 623.873 3.48404 623.788L4.13719 604.431C6.34612 604.516 8.07222 606.5 7.99253 608.861L7.62797 619.666Z" fill="white"/>
  <path d="M8.53937 592.655C8.45967 595.017 6.60437 596.862 4.39543 596.777L5.04858 577.42C7.25752 577.506 8.98361 579.489 8.90392 581.851L8.53937 592.655Z" fill="white"/>
  <path d="M9.45076 565.645C9.37107 568.007 7.51576 569.852 5.30683 569.767L5.95997 550.41C8.16891 550.495 9.89501 552.479 9.81531 554.841L9.45076 565.645Z" fill="white"/>
  <path d="M10.3621 538.635C10.2825 540.996 8.42716 542.842 6.21822 542.757L6.87136 523.4C9.0803 523.485 10.8064 525.469 10.7267 527.831L10.3621 538.635Z" fill="white"/>
  <path d="M11.2735 511.624C11.1939 513.986 9.33855 515.832 7.12961 515.746L7.78276 496.39C9.99169 496.475 11.7178 498.458 11.6381 500.82L11.2735 511.624Z" fill="white"/>
  <path d="M12.1849 484.614C12.1052 486.976 10.2499 488.821 8.041 488.736L8.69415 469.379C10.9031 469.464 12.6292 471.448 12.5495 473.81L12.1849 484.614Z" fill="white"/>
  <path d="M13.0963 457.604C13.0166 459.965 11.1613 461.811 8.95239 461.726L9.60554 442.369C11.8145 442.454 13.5406 444.438 13.4609 446.8L13.0963 457.604Z" fill="white"/>
  <path d="M14.0077 430.593C13.928 432.955 12.0727 434.801 9.86378 434.716L10.5169 415.359C12.7259 415.444 14.452 417.428 14.3723 419.789L14.0077 430.593Z" fill="white"/>
  <path d="M14.9191 403.583C14.8394 405.945 12.9841 407.79 10.7752 407.705L11.4283 388.348C13.6373 388.434 15.3634 390.417 15.2837 392.779L14.9191 403.583Z" fill="white"/>
  <path d="M15.8305 376.573C15.7508 378.935 13.8955 380.78 11.6866 380.695L12.3397 361.338C14.5487 361.423 16.2747 363.407 16.1951 365.769L15.8305 376.573Z" fill="white"/>
  <path d="M16.7419 349.563C16.6622 351.924 14.8069 353.77 12.598 353.685L13.2511 334.328C15.46 334.413 17.1861 336.397 17.1064 338.758L16.7419 349.563Z" fill="white"/>
  <path d="M17.6533 322.552C17.5736 324.914 15.7183 326.76 13.5094 326.674L14.1625 307.318C16.3714 307.403 18.0975 309.386 18.0178 311.748L17.6533 322.552Z" fill="white"/>
  <path d="M18.5647 295.542C18.485 297.904 16.6297 299.749 14.4207 299.664L15.0739 280.307C17.2828 280.392 19.0089 282.376 18.9292 284.738L18.5647 295.542Z" fill="white"/>
  <path d="M19.4761 268.532C19.3964 270.893 17.5411 272.739 15.3321 272.654L15.9853 253.297C18.1942 253.382 19.9203 255.366 19.8406 257.728L19.4761 268.532Z" fill="white"/>
  <path d="M20.3875 241.521C20.3078 243.883 18.4525 245.729 16.2435 245.643L16.8967 226.287C19.1056 226.372 20.8317 228.355 20.752 230.717L20.3875 241.521Z" fill="white"/>
  <path d="M21.2989 214.511C21.2192 216.873 19.3639 218.718 17.1549 218.633L17.8081 199.276C20.017 199.361 21.7431 201.345 21.6634 203.707L21.2989 214.511Z" fill="white"/>
  <path d="M22.2102 187.501C22.1306 189.862 20.2753 191.708 18.0663 191.623L18.7195 172.266C20.9284 172.351 22.6545 174.335 22.5748 176.697L22.2102 187.501Z" fill="white"/>
  <path d="M23.1216 160.49C23.0419 162.852 21.1866 164.698 18.9777 164.612L19.6309 145.256C21.8398 145.341 23.5659 147.325 23.4862 149.686L23.1216 160.49Z" fill="white"/>
  <path d="M24.033 133.48C23.9533 135.842 22.098 137.687 19.8891 137.602L20.5422 118.245C22.7512 118.331 24.4773 120.314 24.3976 122.676L24.033 133.48Z" fill="white"/>
  <path d="M24.9444 106.47C24.8647 108.832 23.0094 110.677 20.8005 110.592L21.4536 91.235C23.6626 91.3202 25.3887 93.3039 25.309 95.6656L24.9444 106.47Z" fill="white"/>
  <path d="M25.8558 79.4595C25.7761 81.8212 23.9208 83.6667 21.7119 83.5815L22.365 64.2247C24.574 64.3099 26.3001 66.2936 26.2204 68.6553L25.8558 79.4595Z" fill="white"/>
  <path d="M36.625 62.8869L1171.12 18.3811L1185.95 703.769L14.38 703.765L36.625 62.8869Z" fill="white"/>
</svg>